<?xml version="1.0" standalone="no"?>
<!DOCTYPE svg PUBLIC "-//W3C//DTD SVG 1.1//EN"
 "http://www.w3.org/Graphics/SVG/1.1/DTD/svg11.dtd">
<svg width="718px" height="196px" version="1.1"
 xmlns="http://www.w3.org/2000/svg" xmlns:xlink="http://www.w3.org/1999/xlink">
<path d="M 297.042500,74.953370 A129.255438,129.255438 0.000000 0,1 296.481385,41.142894" fill="none" stroke ="red" stroke-width="1" />
<path d="M 423.136263,76.149858 A32.456287,18.161393 0.624483 0,1 404.430235,48.500793" fill="none" stroke ="red" stroke-width="1" />
<path d="M 314.419275,4.071150 A40.111209,18.105227 88.078549 0,1 336.333404,36.075406" fill="none" stroke ="red" stroke-width="1" />
<path d="M 300.238894,37.262491 A97.240290,97.240290 0.000000 0,1 334.833512,37.219351" fill="none" stroke ="red" stroke-width="1" />
<path d="M 45.452652,33.229205 A63.963122,23.764493 84.942022 0,1 69.383579,4.411026" fill="none" stroke ="red" stroke-width="1" />
<path d="M 300.076426,38.998426 A135.103266,135.103266 0.000000 0,1 334.912232,39.381647" fill="none" stroke ="red" stroke-width="1" />
<path d="M 426.762714,35.848160 A74.073694,74.073694 0.000000 0,1 433.542107,12.941757" fill="none" stroke ="red" stroke-width="1" />
<path d="M 340.643307,39.148456 A33.310676,20.085832 -1.191534 0,1 337.893617,78.203194" fill="none" stroke ="red" stroke-width="1" />
<path d="M 339.714606,42.034288 A185.283863,185.283863 0.000000 0,1 338.815653,74.937522" fill="none" stroke ="red" stroke-width="1" />
<path d="M 297.109589,76.251025 A38.039635,38.039635 0.000000 0,1 272.450227,63.894522" fill="none" stroke ="red" stroke-width="1" />
<path d="M 297.055529,78.648500 A36.262244,20.636325 1.615653 0,1 295.274756,38.768276" fill="none" stroke ="red" stroke-width="1" />
<path d="M 168.521491,73.012008 A178.792518,178.792518 0.000000 0,1 168.024154,40.088251" fill="none" stroke ="red" stroke-width="1" />
<path d="M 299.344421,75.993429 A190.197837,190.197837 0.000000 0,1 298.262208,40.058381" fill="none" stroke ="red" stroke-width="1" />
<path d="M 434.184646,12.635211 A36.848950,17.531537 87.527321 0,1 463.888655,36.010149" fill="none" stroke ="red" stroke-width="1" />
<path d="M 85.765485,39.496830 A29.874501,17.252044 -0.626644 0,1 84.002799,73.021646" fill="none" stroke ="red" stroke-width="1" />
<path d="M 147.941255,47.970928 A34.791966,34.791966 0.000000 0,1 167.057503,38.608207" fill="none" stroke ="red" stroke-width="1" />
<path d="M 43.253744,34.227709 A39.941459,19.822842 -88.302640 0,1 74.629698,7.264722" fill="none" stroke ="red" stroke-width="1" />
<path d="M 424.248059,74.977109 A176.527254,176.527254 0.000000 0,1 423.813594,41.085112" fill="none" stroke ="red" stroke-width="1" />
<path d="M 42.218592,75.865455 A44.782805,21.505966 -1.180214 0,1 42.280867,36.255130" fill="none" stroke ="red" stroke-width="1" />
<path d="M 297.397281,36.168835 A47.739435,21.319055 89.679626 0,1 338.635175,37.043133" fill="none" stroke ="red" stroke-width="1" />
<path d="M 327.117159,104.095531 A27.440057,16.553154 81.777273 0,1 298.985310,79.895261" fill="none" stroke ="red" stroke-width="1" />
<path d="M 195.398214,5.334118 A48.728560,15.954883 -89.919319 0,1 197.739946,99.682724" fill="none" stroke ="red" stroke-width="1" />
<path d="M 467.081410,41.072972 A185.549919,185.549919 0.000000 0,1 466.639767,74.950888" fill="none" stroke ="red" stroke-width="1" />
<path d="M 337.557529,42.039949 A142.777858,142.777858 0.000000 0,1 336.414564,75.973658" fill="none" stroke ="red" stroke-width="1" />
<path d="M 167.118918,73.362648 A33.758472,17.586449 1.717967 0,1 147.121965,48.121603" fill="none" stroke ="red" stroke-width="1" />
<path d="M 467.663329,39.036348 A34.627172,20.273533 -1.178572 0,1 465.881176,78.231745" fill="none" stroke ="red" stroke-width="1" />
<path d="M 424.927263,35.264730 A48.182221,21.452677 89.910254 0,1 466.249388,37.088359" fill="none" stroke ="red" stroke-width="1" />
<path d="M 335.248371,79.865087 A44.445642,18.815258 89.642026 0,1 301.038081,81.775966" fill="none" stroke ="red" stroke-width="1" />
<path d="M 170.103275,29.174970 A43.095166,20.500633 89.444289 0,1 209.210258,31.116406" fill="none" stroke ="red" stroke-width="1" />
<path d="M 187.938899,103.659199 A48.239347,17.300365 88.168349 0,1 172.983807,24.576797" fill="none" stroke ="red" stroke-width="1" />
<path d="M 401.101857,49.163990 A38.052691,38.052691 0.000000 0,1 422.315901,38.552208" fill="none" stroke ="red" stroke-width="1" />
<path d="M 103.527651,44.602911 A33.545801,19.434324 -2.220792 0,1 83.922092,75.512163" fill="none" stroke ="red" stroke-width="1" />
<path d="M 52.639297,100.723010 A89.251046,89.251046 0.000000 0,1 44.159538,76.171773" fill="none" stroke ="red" stroke-width="1" />
<path d="M 425.176711,79.211612 A71.482843,71.482843 0.000000 0,1 403.680159,70.646730" fill="none" stroke ="red" stroke-width="1" />
<path d="M 463.005177,79.000890 A44.253268,18.892884 -89.861523 0,1 428.036912,79.811166" fill="none" stroke ="red" stroke-width="1" />
<path d="M 172.624171,26.466603 A52.241877,52.241877 0.000000 0,1 183.115417,4.190011" fill="none" stroke ="red" stroke-width="1" />
<path d="M 405.056480,48.032095 A81.188855,81.188855 0.000000 0,1 422.892393,39.806634" fill="none" stroke ="red" stroke-width="1" />
<path d="M 490.079913,55.948024 A16.834909,8.294781 -29.386710 0,1 467.015895,75.405481" fill="none" stroke ="red" stroke-width="1" />
<path d="M 615.978054,53.263105 A51.573255,32.670174 -0.442014 1,1 602.040846,117.727017" fill="none" stroke ="red" stroke-width="1" />
<path d="M 403.859880,70.069269 A14.091735,14.091735 0.000000 0,1 400.079377,48.977325" fill="none" stroke ="red" stroke-width="1" />
<path d="M 362.046253,54.959650 A16.945107,8.616797 -30.086079 0,1 339.035624,75.430709" fill="none" stroke ="red" stroke-width="1" />
<path d="M 455.851337,102.890860 A28.925930,17.337280 84.031630 0,1 426.420326,79.906597" fill="none" stroke ="red" stroke-width="1" />
<path d="M 209.761115,37.420611 A25.872661,16.112294 11.253334 0,1 230.299772,66.457539" fill="none" stroke ="red" stroke-width="1" />
<path d="M 20.051160,62.959888 A29.072348,16.755184 -2.746390 0,1 40.353665,39.153689" fill="none" stroke ="red" stroke-width="1" />
<path d="M 212.810455,39.831966 A35.534658,17.995323 -0.806042 0,1 212.152420,72.666626" fill="none" stroke ="red" stroke-width="1" />
<path d="M 79.873402,76.719227 A105.152885,105.152885 0.000000 0,1 47.168438,76.938127" fill="none" stroke ="red" stroke-width="1" />
<path d="M 465.062119,79.828188 A56.098131,56.098131 0.000000 0,1 457.935404,99.823582" fill="none" stroke ="red" stroke-width="1" />
<path d="M 184.027931,4.062272 A10.316619,10.316619 0.000000 0,1 197.617825,6.621300" fill="none" stroke ="red" stroke-width="1" />
<path d="M 299.733846,36.059214 A48.491010,48.491010 0.000000 0,1 312.517695,4.624494" fill="none" stroke ="red" stroke-width="1" />
<path d="M 469.015622,42.190202 A28.301191,28.301191 0.000000 0,1 490.922037,55.402739" fill="none" stroke ="red" stroke-width="1" />
<path d="M 73.310594,100.267732 A12.350288,12.350288 0.000000 0,1 53.470322,100.525760" fill="none" stroke ="red" stroke-width="1" />
<path d="M 41.921857,74.157585 A70.177980,70.177980 0.000000 0,1 24.179776,66.703393" fill="none" stroke ="red" stroke-width="1" />
<path d="M 426.797090,74.951505 A131.338562,131.338562 0.000000 0,1 425.720854,41.068714" fill="none" stroke ="red" stroke-width="1" />
<path d="M 199.067964,100.817823 A12.243278,12.243278 0.000000 0,1 180.039086,100.945159" fill="none" stroke ="red" stroke-width="1" />
<path d="M 43.494181,72.899822 A186.749712,186.749712 0.000000 0,1 41.697257,40.024217" fill="none" stroke ="red" stroke-width="1" />
<path d="M 84.829644,40.063812 A158.173307,158.173307 0.000000 0,1 84.195424,69.949226" fill="none" stroke ="red" stroke-width="1" />
<path d="M 146.966303,67.039903 A15.362391,13.645617 22.701318 0,1 147.337136,45.522791" fill="none" stroke ="red" stroke-width="1" />
<path d="M 584.981542,119.908644 A46.723191,29.944965 80.196261 0,1 551.302490,42.222872" fill="none" stroke ="red" stroke-width="1" />
<path d="M 333.939434,77.779339 A107.432779,107.432779 0.000000 0,1 301.148247,77.714955" fill="none" stroke ="red" stroke-width="1" />
<path d="M 332.941541,79.861576 A173.023340,173.023340 0.000000 0,1 301.045621,80.103214" fill="none" stroke ="red" stroke-width="1" />
<path d="M 27.187334,117.553506 A5.152995,5.152995 0.000000 1,1 25.879428,108.311195" fill="none" stroke ="red" stroke-width="1" />
<path d="M 138.452372,120.472728 A7.216549,7.216549 0.000000 0,1 138.021092,108.971950" fill="none" stroke ="red" stroke-width="1" />
<path d="M 45.033665,37.696789 A72.322015,72.322015 0.000000 0,1 80.953845,38.268630" fill="none" stroke ="red" stroke-width="1" />
<path d="M 613.799011,54.170478 A64.869033,64.869033 0.000000 0,1 595.286210,116.271679" fill="none" stroke ="red" stroke-width="1" />
<path d="M 590.197870,113.546476 A27.578518,23.968140 37.668959 0,1 570.477453,69.483179" fill="none" stroke ="red" stroke-width="1" />
<path d="M 609.749582,61.252531 A44.792147,44.792147 0.000000 0,1 591.268664,115.270534" fill="none" stroke ="red" stroke-width="1" />
<path d="M 587.716651,115.767662 A48.761854,34.008247 -0.174199 0,1 610.998200,51.737471" fill="none" stroke ="red" stroke-width="1" />
<path d="M 556.917470,29.571769 A48.609504,33.148939 86.302757 0,1 613.877287,51.233002" fill="none" stroke ="red" stroke-width="1" />
<line x1="47.503654" y1="76.052658" x2="80.508823" y2="75.834423"  fill="none" stroke ="blue" stroke-width="1" />
<line x1="232.466357" y1="67.423621" x2="210.252503" y2="77.208372"  fill="none" stroke ="blue" stroke-width="1" />
<line x1="210.620031" y1="76.947096" x2="200.775123" y2="101.609824"  fill="none" stroke ="blue" stroke-width="1" />
<line x1="212.164714" y1="40.519162" x2="211.212560" y2="73.549368"  fill="none" stroke ="blue" stroke-width="1" />
<line x1="76.733071" y1="8.098433" x2="85.840292" y2="36.063515"  fill="none" stroke ="blue" stroke-width="1" />
<line x1="84.909730" y1="36.453598" x2="104.627526" y2="44.174313"  fill="none" stroke ="blue" stroke-width="1" />
<line x1="84.842963" y1="76.016599" x2="75.099501" y2="101.345940"  fill="none" stroke ="blue" stroke-width="1" />
<line x1="46.576343" y1="78.472701" x2="52.759746" y2="95.764705"  fill="none" stroke ="blue" stroke-width="1" />
<line x1="52.929652" y1="96.061959" x2="61.515915" y2="104.483774"  fill="none" stroke ="blue" stroke-width="1" />
<line x1="61.488671" y1="103.829343" x2="66.517120" y2="104.002314"  fill="none" stroke ="blue" stroke-width="1" />
<line x1="67.529089" y1="103.528315" x2="74.933280" y2="95.921752"  fill="none" stroke ="blue" stroke-width="1" />
<line x1="75.141417" y1="95.369334" x2="81.313317" y2="78.431974"  fill="none" stroke ="blue" stroke-width="1" />
<line x1="179.149609" y1="101.643343" x2="169.448669" y2="77.930093"  fill="none" stroke ="blue" stroke-width="1" />
<line x1="170.001835" y1="77.736527" x2="147.440686" y2="68.647226"  fill="none" stroke ="blue" stroke-width="1" />
<line x1="338.693190" y1="80.568342" x2="331.626430" y2="100.544725"  fill="none" stroke ="blue" stroke-width="1" />
<line x1="79.452806" y1="20.988490" x2="70.578421" y2="4.457900"  fill="none" stroke ="blue" stroke-width="1" />
<line x1="82.556214" y1="34.484223" x2="79.142145" y2="22.319776"  fill="none" stroke ="blue" stroke-width="1" />
<line x1="294.244311" y1="40.937723" x2="277.142778" y2="48.714444"  fill="none" stroke ="blue" stroke-width="1" />
<line x1="276.799689" y1="49.738512" x2="272.712887" y2="54.873566"  fill="none" stroke ="blue" stroke-width="1" />
<line x1="272.214052" y1="55.514955" x2="272.581888" y2="62.548018"  fill="none" stroke ="blue" stroke-width="1" />
<line x1="147.477744" y1="44.444072" x2="169.218560" y2="35.792740"  fill="none" stroke ="blue" stroke-width="1" />
<line x1="168.686201" y1="37.357328" x2="170.046909" y2="29.595882"  fill="none" stroke ="blue" stroke-width="1" />
<line x1="359.428618" y1="49.645592" x2="341.754779" y2="40.980347"  fill="none" stroke ="blue" stroke-width="1" />
<line x1="362.992070" y1="56.180023" x2="359.358410" y2="50.592071"  fill="none" stroke ="blue" stroke-width="1" />
<line x1="48.495036" y1="34.699575" x2="83.523111" y2="35.570802"  fill="none" stroke ="blue" stroke-width="1" />
<line x1="465.184881" y1="75.547630" x2="466.146863" y2="41.518286"  fill="none" stroke ="blue" stroke-width="1" />
<line x1="82.885030" y1="74.511098" x2="83.865064" y2="40.510523"  fill="none" stroke ="blue" stroke-width="1" />
<line x1="479.857332" y1="145.496050" x2="479.946001" y2="153.517179"  fill="none" stroke ="blue" stroke-width="1" />
<line x1="547.947495" y1="67.592079" x2="552.271604" y2="93.538064"  fill="none" stroke ="blue" stroke-width="1" />
<line x1="552.418852" y1="93.220459" x2="564.415322" y2="111.222812"  fill="none" stroke ="blue" stroke-width="1" />
<line x1="550.254735" y1="50.354873" x2="548.374837" y2="66.485413"  fill="none" stroke ="blue" stroke-width="1" />
<line x1="555.539650" y1="35.514686" x2="549.930244" y2="50.659357"  fill="none" stroke ="blue" stroke-width="1" />
<line x1="562.876509" y1="25.791953" x2="555.029997" y2="35.910971"  fill="none" stroke ="blue" stroke-width="1" />
<line x1="574.838961" y1="17.539172" x2="563.425402" y2="25.391571"  fill="none" stroke ="blue" stroke-width="1" />
<line x1="588.559875" y1="17.984443" x2="575.501243" y2="17.468533"  fill="none" stroke ="blue" stroke-width="1" />
<line x1="599.705091" y1="26.229127" x2="588.381989" y2="17.655863"  fill="none" stroke ="blue" stroke-width="1" />
<line x1="610.850131" y1="43.730397" x2="600.223385" y2="25.087656"  fill="none" stroke ="blue" stroke-width="1" />
<line x1="44.283082" y1="40.506924" x2="45.337373" y2="73.537110"  fill="none" stroke ="blue" stroke-width="1" />
<line x1="459.706570" y1="130.490432" x2="460.034378" y2="137.567883"  fill="none" stroke ="blue" stroke-width="1" />
<line x1="352.095597" y1="146.501975" x2="352.144466" y2="156.506621"  fill="none" stroke ="blue" stroke-width="1" />
<line x1="353.935194" y1="122.478870" x2="353.545333" y2="114.449246"  fill="none" stroke ="blue" stroke-width="1" />
<line x1="315.837856" y1="145.488324" x2="315.714147" y2="152.503776"  fill="none" stroke ="blue" stroke-width="1" />
<line x1="570.500018" y1="134.807774" x2="550.499960" y2="134.808919"  fill="none" stroke ="blue" stroke-width="1" />
<line x1="214.816386" y1="125.497505" x2="214.871643" y2="132.504955"  fill="none" stroke ="blue" stroke-width="1" />
<line x1="451.903371" y1="114.488932" x2="452.124229" y2="122.537751"  fill="none" stroke ="blue" stroke-width="1" />
<line x1="267.846148" y1="122.530600" x2="268.028936" y2="114.489292"  fill="none" stroke ="blue" stroke-width="1" />
<line x1="307.928376" y1="129.543857" x2="308.178550" y2="138.508970"  fill="none" stroke ="blue" stroke-width="1" />
<line x1="163.241531" y1="132.503960" x2="163.278938" y2="125.498820"  fill="none" stroke ="blue" stroke-width="1" />
<line x1="457.890743" y1="137.517965" x2="458.214010" y2="130.486851"  fill="none" stroke ="blue" stroke-width="1" />
<line x1="466.304955" y1="168.503602" x2="466.175398" y2="161.487528"  fill="none" stroke ="blue" stroke-width="1" />
<line x1="439.551979" y1="113.418437" x2="438.854058" y2="121.530462"  fill="none" stroke ="blue" stroke-width="1" />
<line x1="430.046991" y1="129.468765" x2="429.874636" y2="137.486557"  fill="none" stroke ="blue" stroke-width="1" />
<line x1="218.167079" y1="117.512304" x2="218.296484" y2="110.496246"  fill="none" stroke ="blue" stroke-width="1" />
<line x1="419.400733" y1="145.454530" x2="419.108264" y2="152.525160"  fill="none" stroke ="blue" stroke-width="1" />
<line x1="105.652592" y1="120.565758" x2="106.057148" y2="113.474734"  fill="none" stroke ="blue" stroke-width="1" />
<line x1="178.329827" y1="109.438158" x2="177.955345" y2="116.524064"  fill="none" stroke ="blue" stroke-width="1" />
<line x1="308.774444" y1="114.490559" x2="308.670200" y2="122.502215"  fill="none" stroke ="blue" stroke-width="1" />
<line x1="213.147822" y1="131.521465" x2="212.776076" y2="125.422224"  fill="none" stroke ="blue" stroke-width="1" />
<line x1="220.044071" y1="109.481644" x2="219.761085" y2="116.510511"  fill="none" stroke ="blue" stroke-width="1" />
<line x1="335.546051" y1="121.523843" x2="335.369956" y2="114.478257"  fill="none" stroke ="blue" stroke-width="1" />
<line x1="395.502849" y1="139.047200" x2="385.503245" y2="138.984275"  fill="none" stroke ="blue" stroke-width="1" />
<line x1="204.471428" y1="109.500397" x2="204.582715" y2="117.512741"  fill="none" stroke ="blue" stroke-width="1" />
<line x1="303.664610" y1="122.496672" x2="303.502528" y2="114.479732"  fill="none" stroke ="blue" stroke-width="1" />
<line x1="596.019936" y1="153.571861" x2="596.307440" y2="147.490896"  fill="none" stroke ="blue" stroke-width="1" />
<line x1="466.005482" y1="122.498300" x2="465.978570" y2="114.498390"  fill="none" stroke ="blue" stroke-width="1" />
<line x1="550.497841" y1="132.918899" x2="570.504995" y2="132.844569"  fill="none" stroke ="blue" stroke-width="1" />
<line x1="472.472655" y1="126.579728" x2="473.137379" y2="118.470276"  fill="none" stroke ="blue" stroke-width="1" />
<line x1="4.607404" y1="110.500240" x2="4.587265" y2="119.500195"  fill="none" stroke ="blue" stroke-width="1" />
<line x1="393.119114" y1="114.513369" x2="393.400798" y2="122.538582"  fill="none" stroke ="blue" stroke-width="1" />
<line x1="425.618831" y1="114.487657" x2="425.506597" y2="122.500092"  fill="none" stroke ="blue" stroke-width="1" />
<line x1="623.205546" y1="156.468289" x2="623.009086" y2="164.487974"  fill="none" stroke ="blue" stroke-width="1" />
<line x1="214.935950" y1="117.486407" x2="214.685774" y2="109.463027"  fill="none" stroke ="blue" stroke-width="1" />
<line x1="96.859227" y1="110.489489" x2="97.064734" y2="117.512736"  fill="none" stroke ="blue" stroke-width="1" />
<line x1="613.441821" y1="53.116693" x2="593.447109" y2="56.151533"  fill="none" stroke ="blue" stroke-width="1" />
<line x1="592.710195" y1="56.141982" x2="570.308403" y2="69.170561"  fill="none" stroke ="blue" stroke-width="1" />
<line x1="98.902653" y1="117.508318" x2="99.047621" y2="110.490655"  fill="none" stroke ="blue" stroke-width="1" />
<line x1="569.500006" y1="149.737284" x2="550.499998" y2="149.737139"  fill="none" stroke ="blue" stroke-width="1" />
<line x1="610.054942" y1="165.488041" x2="609.882157" y2="157.470214"  fill="none" stroke ="blue" stroke-width="1" />
<line x1="550.499944" y1="148.131648" x2="569.500096" y2="148.128743"  fill="none" stroke ="blue" stroke-width="1" />
<line x1="214.502821" y1="133.729102" x2="181.499604" y2="133.608328"  fill="none" stroke ="blue" stroke-width="1" />
<line x1="635.579847" y1="119.064538" x2="613.456665" y2="122.193611"  fill="none" stroke ="blue" stroke-width="1" />
<line x1="453.365356" y1="145.476290" x2="453.197819" y2="153.493685"  fill="none" stroke ="blue" stroke-width="1" />
<line x1="326.499989" y1="154.474749" x2="304.499551" y2="154.484484"  fill="none" stroke ="blue" stroke-width="1" />
</svg>
