<?xml version="1.0" standalone="no"?>
<!DOCTYPE svg PUBLIC "-//W3C//DTD SVG 1.1//EN"
 "http://www.w3.org/Graphics/SVG/1.1/DTD/svg11.dtd">
<svg width="593px" height="360px" version="1.1"
 xmlns="http://www.w3.org/2000/svg" xmlns:xlink="http://www.w3.org/1999/xlink">
<path d="M 279.689257,314.308384 A17.205782,10.508316 26.093166 0,1 295.449225,300.195490" fill="none" stroke ="red" stroke-width="1" />
<path d="M 472.140843,81.184157 A24.005310,24.005310 0.000000 0,1 467.730903,57.873597" fill="none" stroke ="red" stroke-width="1" />
<path d="M 194.255285,310.918033 A22.431606,11.409103 38.558530 0,1 212.890480,303.210203" fill="none" stroke ="red" stroke-width="1" />
<path d="M 334.923185,125.479856 A28.651061,28.651061 0.000000 0,1 358.320271,138.422099" fill="none" stroke ="red" stroke-width="1" />
<ellipse transform="translate(518.661437 146.769478) rotate(74.527027)" rx="15.035737" ry="8.403584" stroke="red" fill="none" stroke-width="1" />
<path d="M 409.242579,46.886201 A36.714065,11.725821 48.225239 0,1 393.246076,56.036217" fill="none" stroke ="red" stroke-width="1" />
<path d="M 391.533448,52.318906 A15.518280,8.403535 47.622788 0,1 407.609480,45.508622" fill="none" stroke ="red" stroke-width="1" />
<path d="M 496.784307,113.708683 A14.526693,5.953051 76.565996 0,1 493.026185,86.169820" fill="none" stroke ="red" stroke-width="1" />
<path d="M 377.070066,85.919661 A25.009232,25.009232 0.000000 0,1 371.510933,61.343019" fill="none" stroke ="red" stroke-width="1" />
<path d="M 449.022354,59.100175 A29.756309,29.756309 0.000000 0,1 447.336115,46.915474" fill="none" stroke ="red" stroke-width="1" />
<path d="M 474.971340,52.366133 A15.427578,7.663422 83.850466 1,1 474.496431,82.198140" fill="none" stroke ="red" stroke-width="1" />
<path d="M 380.205937,93.300461 A38.735793,38.735793 0.000000 0,1 360.232756,92.874017" fill="none" stroke ="red" stroke-width="1" />
<path d="M 303.640840,281.535124 A16.249233,7.052795 -79.234850 1,1 305.428920,251.946589" fill="none" stroke ="red" stroke-width="1" />
<path d="M 214.174382,302.411057 A19.840770,11.798359 74.067921 0,1 237.782260,325.167938" fill="none" stroke ="red" stroke-width="1" />
<path d="M 299.044634,227.892666 A136.903219,136.903219 0.000000 0,1 327.981727,226.436674" fill="none" stroke ="red" stroke-width="1" />
<path d="M 494.319833,86.367933 A13.914080,5.021474 75.024425 0,1 503.393484,110.790563" fill="none" stroke ="red" stroke-width="1" />
<path d="M 306.201619,251.678815 A14.814321,5.800610 -78.996464 0,1 303.463373,280.430195" fill="none" stroke ="red" stroke-width="1" />
<path d="M 36.111896,300.066314 A21.268104,18.149457 38.929671 0,1 61.141148,294.726735" fill="none" stroke ="red" stroke-width="1" />
<path d="M 374.713033,59.177938 A12.508871,5.752997 67.368606 0,1 386.822515,79.164435" fill="none" stroke ="red" stroke-width="1" />
<path d="M 350.743897,105.263361 A12.950967,8.350250 -74.848657 0,1 366.645859,110.144135" fill="none" stroke ="red" stroke-width="1" />
<path d="M 137.248218,309.733410 A18.032152,18.032152 0.000000 0,1 157.213264,327.813843" fill="none" stroke ="red" stroke-width="1" />
<path d="M 79.734270,286.208056 A16.494211,16.494211 0.000000 0,1 95.498168,295.734417" fill="none" stroke ="red" stroke-width="1" />
<path d="M 294.997214,300.006341 A16.192246,10.277434 29.560599 1,1 282.421336,315.557546" fill="none" stroke ="red" stroke-width="1" />
<path d="M 447.650067,42.041120 A9.870258,5.800658 -80.724223 0,1 458.124847,33.925865" fill="none" stroke ="red" stroke-width="1" />
<path d="M 250.255688,300.396026 A17.091568,8.789130 -79.961813 0,1 235.660366,326.629908" fill="none" stroke ="red" stroke-width="1" />
<path d="M 366.363484,110.892703 A15.291133,8.600118 -70.809584 1,1 349.360437,108.530754" fill="none" stroke ="red" stroke-width="1" />
<path d="M 318.676252,206.344494 A17.804766,12.173194 61.582606 0,1 317.997898,178.994430" fill="none" stroke ="red" stroke-width="1" />
<path d="M 129.355494,295.758907 A34.087178,34.087178 0.000000 0,1 131.387541,325.242408" fill="none" stroke ="red" stroke-width="1" />
<path d="M 503.446570,111.083534 A9.767675,5.332222 75.203453 0,1 493.858453,110.066298" fill="none" stroke ="red" stroke-width="1" />
<path d="M 179.881248,320.223368 A15.205151,6.548930 6.779126 0,1 189.927428,310.002043" fill="none" stroke ="red" stroke-width="1" />
<path d="M 118.904806,316.899705 A13.168450,10.040074 17.066562 0,1 96.031272,305.365316" fill="none" stroke ="red" stroke-width="1" />
<path d="M 319.364148,178.775773 A17.012108,11.909338 62.837206 1,1 318.763572,206.244774" fill="none" stroke ="red" stroke-width="1" />
<path d="M 236.906619,303.979226 A7.533200,6.223897 -33.183982 0,1 250.591207,300.729246" fill="none" stroke ="red" stroke-width="1" />
<path d="M 535.455848,192.430642 A9.235075,5.291216 72.728115 0,1 545.258865,200.959066" fill="none" stroke ="red" stroke-width="1" />
<path d="M 206.146734,322.611725 A14.031160,14.031160 0.000000 0,1 190.753246,321.116429" fill="none" stroke ="red" stroke-width="1" />
<path d="M 234.964140,325.930790 A10.313530,10.313530 0.000000 0,1 222.695450,326.444909" fill="none" stroke ="red" stroke-width="1" />
<path d="M 547.014159,342.873365 A123.995496,123.995496 0.000000 0,1 531.010152,342.370520" fill="none" stroke ="red" stroke-width="1" />
<path d="M 545.655253,218.184151 A13.160980,13.160980 0.000000 0,1 562.502531,227.622634" fill="none" stroke ="red" stroke-width="1" />
<path d="M 65.383505,309.480768 A17.511427,17.511427 0.000000 0,1 42.236254,321.789492" fill="none" stroke ="red" stroke-width="1" />
<path d="M 591.017754,342.279242 A108.116335,108.116335 0.000000 0,1 578.982033,342.924387" fill="none" stroke ="red" stroke-width="1" />
<path d="M 35.945648,316.568684 A17.574009,17.574009 0.000000 0,1 36.255626,300.533347" fill="none" stroke ="red" stroke-width="1" />
<path d="M 490.905086,345.669963 A89.284531,89.284531 0.000000 0,1 453.449663,347.004008" fill="none" stroke ="red" stroke-width="1" />
<path d="M 560.997687,302.173689 A16.949055,16.949055 0.000000 0,1 543.172605,278.007961" fill="none" stroke ="red" stroke-width="1" />
<path d="M 437.138177,45.071906 A11.733738,6.983958 -63.168163 0,1 422.861025,46.921216" fill="none" stroke ="red" stroke-width="1" />
<path d="M 107.294390,288.356598 A16.832682,16.832682 0.000000 0,1 127.452550,307.029618" fill="none" stroke ="red" stroke-width="1" />
<path d="M 53.941636,294.660639 A20.901210,20.901210 0.000000 0,1 66.683522,317.005351" fill="none" stroke ="red" stroke-width="1" />
<path d="M 426.630083,32.626778 A12.994832,7.467481 -73.656821 0,1 441.137061,35.017475" fill="none" stroke ="red" stroke-width="1" />
<line x1="485.342116" y1="85.863608" x2="498.523193" y2="82.593484"  fill="none" stroke ="blue" stroke-width="1" />
<line x1="522.748986" y1="117.701835" x2="502.380186" y2="121.921669"  fill="none" stroke ="blue" stroke-width="1" />
<line x1="346.430346" y1="151.386967" x2="333.435215" y2="159.394867"  fill="none" stroke ="blue" stroke-width="1" />
<line x1="535.262485" y1="193.441415" x2="533.462861" y2="200.737496"  fill="none" stroke ="blue" stroke-width="1" />
<line x1="533.278143" y1="201.238887" x2="538.510557" y2="216.832016"  fill="none" stroke ="blue" stroke-width="1" />
<line x1="505.351586" y1="123.616358" x2="522.375225" y2="120.757106"  fill="none" stroke ="blue" stroke-width="1" />
<line x1="459.971202" y1="54.497193" x2="459.857974" y2="35.491910"  fill="none" stroke ="blue" stroke-width="1" />
<line x1="270.394690" y1="305.361994" x2="256.873878" y2="315.679483"  fill="none" stroke ="blue" stroke-width="1" />
<line x1="331.751755" y1="130.214213" x2="346.216766" y2="142.956701"  fill="none" stroke ="blue" stroke-width="1" />
<line x1="345.493114" y1="141.510705" x2="351.101989" y2="145.118731"  fill="none" stroke ="blue" stroke-width="1" />
<line x1="348.400685" y1="146.224540" x2="358.340418" y2="145.450570"  fill="none" stroke ="blue" stroke-width="1" />
<line x1="357.946660" y1="145.677075" x2="360.938688" y2="143.665219"  fill="none" stroke ="blue" stroke-width="1" />
<line x1="99.408810" y1="299.468332" x2="103.665755" y2="287.210285"  fill="none" stroke ="blue" stroke-width="1" />
<line x1="26.530059" y1="316.689268" x2="17.441662" y2="318.132679"  fill="none" stroke ="blue" stroke-width="1" />
<line x1="18.033544" y1="317.120668" x2="9.478416" y2="324.474891"  fill="none" stroke ="blue" stroke-width="1" />
<line x1="9.656029" y1="324.236594" x2="7.554527" y2="327.534744"  fill="none" stroke ="blue" stroke-width="1" />
<line x1="131.502245" y1="342.676172" x2="33.492547" y2="342.555542"  fill="none" stroke ="blue" stroke-width="1" />
<line x1="531.399204" y1="178.246058" x2="543.480439" y2="173.450718"  fill="none" stroke ="blue" stroke-width="1" />
<line x1="520.368163" y1="179.035634" x2="532.271681" y2="177.963961"  fill="none" stroke ="blue" stroke-width="1" />
<line x1="103.404038" y1="316.564078" x2="97.397289" y2="307.568585"  fill="none" stroke ="blue" stroke-width="1" />
<line x1="108.542051" y1="318.399303" x2="104.424854" y2="316.679945"  fill="none" stroke ="blue" stroke-width="1" />
<line x1="381.578547" y1="94.538839" x2="388.319821" y2="80.905373"  fill="none" stroke ="blue" stroke-width="1" />
<line x1="258.505133" y1="343.191476" x2="157.496985" y2="343.331939"  fill="none" stroke ="blue" stroke-width="1" />
<line x1="383.554216" y1="341.879528" x2="280.483356" y2="343.155480"  fill="none" stroke ="blue" stroke-width="1" />
<line x1="69.764751" y1="315.633581" x2="64.648503" y2="287.473020"  fill="none" stroke ="blue" stroke-width="1" />
<line x1="280.370494" y1="342.567613" x2="258.802461" y2="344.013077"  fill="none" stroke ="blue" stroke-width="1" />
<line x1="299.490001" y1="230.665224" x2="324.639963" y2="232.187232"  fill="none" stroke ="blue" stroke-width="1" />
<line x1="101.536800" y1="285.517325" x2="97.524261" y2="294.040650"  fill="none" stroke ="blue" stroke-width="1" />
<line x1="450.489918" y1="342.087741" x2="414.462554" y2="342.968797"  fill="none" stroke ="blue" stroke-width="1" />
<line x1="414.362511" y1="344.223745" x2="391.190880" y2="342.375528"  fill="none" stroke ="blue" stroke-width="1" />
<line x1="391.060481" y1="341.240570" x2="382.925375" y2="339.841684"  fill="none" stroke ="blue" stroke-width="1" />
<line x1="150.495098" y1="349.882320" x2="216.500757" y2="349.977988"  fill="none" stroke ="blue" stroke-width="1" />
<line x1="156.536135" y1="344.608772" x2="138.484720" y2="343.876865"  fill="none" stroke ="blue" stroke-width="1" />
<line x1="543.890995" y1="169.430564" x2="530.341815" y2="175.123521"  fill="none" stroke ="blue" stroke-width="1" />
<line x1="217.494022" y1="348.884486" x2="251.516893" y2="349.413471"  fill="none" stroke ="blue" stroke-width="1" />
<line x1="251.473259" y1="350.522648" x2="287.528350" y2="349.536172"  fill="none" stroke ="blue" stroke-width="1" />
<line x1="287.889294" y1="330.864335" x2="293.507395" y2="325.466828"  fill="none" stroke ="blue" stroke-width="1" />
<line x1="276.284114" y1="332.428263" x2="289.164355" y2="329.833729"  fill="none" stroke ="blue" stroke-width="1" />
<line x1="584.711767" y1="147.845472" x2="578.568240" y2="151.611325"  fill="none" stroke ="blue" stroke-width="1" />
<line x1="579.701016" y1="151.285873" x2="568.821035" y2="160.125884"  fill="none" stroke ="blue" stroke-width="1" />
<line x1="570.006195" y1="158.139861" x2="566.365773" y2="163.131422"  fill="none" stroke ="blue" stroke-width="1" />
<line x1="592.179956" y1="145.120393" x2="584.307330" y2="148.423936"  fill="none" stroke ="blue" stroke-width="1" />
<line x1="172.410397" y1="328.062784" x2="186.239456" y2="325.228675"  fill="none" stroke ="blue" stroke-width="1" />
<line x1="185.331164" y1="326.559136" x2="190.227853" y2="320.475975"  fill="none" stroke ="blue" stroke-width="1" />
<line x1="121.009872" y1="320.885974" x2="129.698255" y2="331.918870"  fill="none" stroke ="blue" stroke-width="1" />
<line x1="120.603813" y1="300.498113" x2="120.592735" y2="317.499409"  fill="none" stroke ="blue" stroke-width="1" />
<line x1="61.496435" y1="349.096072" x2="117.506230" y2="348.953866"  fill="none" stroke ="blue" stroke-width="1" />
<line x1="361.362586" y1="87.137186" x2="352.497963" y2="90.494621"  fill="none" stroke ="blue" stroke-width="1" />
<line x1="376.422176" y1="87.066078" x2="359.472104" y2="87.986013"  fill="none" stroke ="blue" stroke-width="1" />
<line x1="134.495774" y1="349.136054" x2="149.508400" y2="349.235808"  fill="none" stroke ="blue" stroke-width="1" />
<line x1="566.079262" y1="163.154858" x2="558.850365" y2="171.967088"  fill="none" stroke ="blue" stroke-width="1" />
<line x1="0.466126" y1="347.960163" x2="61.549246" y2="349.377236"  fill="none" stroke ="blue" stroke-width="1" />
<line x1="319.330225" y1="350.384242" x2="337.693444" y2="348.910717"  fill="none" stroke ="blue" stroke-width="1" />
<line x1="336.533858" y1="348.392252" x2="372.547896" y2="348.689096"  fill="none" stroke ="blue" stroke-width="1" />
<line x1="31.334349" y1="342.429678" x2="21.568276" y2="343.941150"  fill="none" stroke ="blue" stroke-width="1" />
<line x1="21.498261" y1="344.395682" x2="13.500483" y2="344.528970"  fill="none" stroke ="blue" stroke-width="1" />
<line x1="15.097240" y1="340.278573" x2="3.590082" y2="334.325862"  fill="none" stroke ="blue" stroke-width="1" />
<line x1="339.036635" y1="160.785478" x2="348.111288" y2="154.900595"  fill="none" stroke ="blue" stroke-width="1" />
<line x1="413.276341" y1="38.855599" x2="423.145798" y2="45.063149"  fill="none" stroke ="blue" stroke-width="1" />
<line x1="423.314948" y1="44.720238" x2="424.605827" y2="51.666179"  fill="none" stroke ="blue" stroke-width="1" />
<line x1="559.992545" y1="172.463562" x2="553.563390" y2="183.536804"  fill="none" stroke ="blue" stroke-width="1" />
<line x1="117.428567" y1="347.952640" x2="134.436613" y2="348.789010"  fill="none" stroke ="blue" stroke-width="1" />
<line x1="205.763663" y1="321.565393" x2="212.630423" y2="326.311293"  fill="none" stroke ="blue" stroke-width="1" />
<line x1="212.396246" y1="327.201886" x2="221.394511" y2="324.070169"  fill="none" stroke ="blue" stroke-width="1" />
<line x1="554.410665" y1="184.449588" x2="549.350930" y2="193.415879"  fill="none" stroke ="blue" stroke-width="1" />
<line x1="145.958830" y1="314.345600" x2="155.162186" y2="325.976000"  fill="none" stroke ="blue" stroke-width="1" />
<line x1="550.506659" y1="194.501475" x2="548.301894" y2="204.456123"  fill="none" stroke ="blue" stroke-width="1" />
<line x1="20.480105" y1="319.594424" x2="29.702772" y2="321.537618"  fill="none" stroke ="blue" stroke-width="1" />
<line x1="567.631563" y1="220.323170" x2="553.187164" y2="209.576404"  fill="none" stroke ="blue" stroke-width="1" />
<line x1="466.502331" y1="344.489779" x2="449.559083" y2="340.625104"  fill="none" stroke ="blue" stroke-width="1" />
<line x1="40.608810" y1="303.506771" x2="39.802941" y2="316.456622"  fill="none" stroke ="blue" stroke-width="1" />
<line x1="566.219955" y1="232.942347" x2="550.016520" y2="222.684128"  fill="none" stroke ="blue" stroke-width="1" />
<line x1="0.550577" y1="338.403032" x2="10.462050" y2="343.572758"  fill="none" stroke ="blue" stroke-width="1" />
<line x1="537.575260" y1="341.030911" x2="466.459726" y2="343.145628"  fill="none" stroke ="blue" stroke-width="1" />
<line x1="292.465423" y1="348.346104" x2="319.665196" y2="349.457659"  fill="none" stroke ="blue" stroke-width="1" />
<line x1="250.801523" y1="336.572913" x2="272.464025" y2="310.294696"  fill="none" stroke ="blue" stroke-width="1" />
<line x1="542.974061" y1="231.554499" x2="553.300717" y2="228.762833"  fill="none" stroke ="blue" stroke-width="1" />
<line x1="394.374716" y1="348.723741" x2="412.491959" y2="350.578545"  fill="none" stroke ="blue" stroke-width="1" />
<line x1="280.428699" y1="325.310176" x2="262.679240" y2="331.977187"  fill="none" stroke ="blue" stroke-width="1" />
<line x1="160.513659" y1="332.531150" x2="172.314111" y2="327.356544"  fill="none" stroke ="blue" stroke-width="1" />
<line x1="80.830711" y1="287.586679" x2="95.364462" y2="297.694879"  fill="none" stroke ="blue" stroke-width="1" />
<line x1="30.438177" y1="336.451499" x2="41.046878" y2="322.929039"  fill="none" stroke ="blue" stroke-width="1" />
<line x1="549.471624" y1="207.691590" x2="562.337502" y2="209.597146"  fill="none" stroke ="blue" stroke-width="1" />
<line x1="561.939814" y1="209.366900" x2="564.770333" y2="214.461070"  fill="none" stroke ="blue" stroke-width="1" />
<line x1="327.070682" y1="175.250467" x2="341.392989" y2="164.359276"  fill="none" stroke ="blue" stroke-width="1" />
<line x1="546.969467" y1="221.806958" x2="540.891757" y2="231.102304"  fill="none" stroke ="blue" stroke-width="1" />
<line x1="417.474217" y1="348.991941" x2="441.536157" y2="349.407768"  fill="none" stroke ="blue" stroke-width="1" />
<line x1="439.902045" y1="350.099788" x2="452.842777" y2="346.875917"  fill="none" stroke ="blue" stroke-width="1" />
<line x1="372.545751" y1="347.865190" x2="393.499224" y2="347.459875"  fill="none" stroke ="blue" stroke-width="1" />
<line x1="571.492447" y1="338.457000" x2="547.529219" y2="342.666338"  fill="none" stroke ="blue" stroke-width="1" />
<line x1="550.483789" y1="279.345576" x2="572.507531" y2="279.036317"  fill="none" stroke ="blue" stroke-width="1" />
<line x1="574.733561" y1="298.620302" x2="592.086912" y2="300.776535"  fill="none" stroke ="blue" stroke-width="1" />
<line x1="533.491509" y1="347.124945" x2="550.501956" y2="347.356058"  fill="none" stroke ="blue" stroke-width="1" />
<line x1="583.223872" y1="345.800486" x2="592.097773" y2="347.684653"  fill="none" stroke ="blue" stroke-width="1" />
<line x1="554.371663" y1="233.283311" x2="539.018945" y2="242.376203"  fill="none" stroke ="blue" stroke-width="1" />
<line x1="194.377488" y1="313.686331" x2="202.956329" y2="319.326882"  fill="none" stroke ="blue" stroke-width="1" />
<line x1="551.391120" y1="240.086680" x2="556.419841" y2="250.928640"  fill="none" stroke ="blue" stroke-width="1" />
<line x1="560.866145" y1="305.419573" x2="563.728359" y2="318.449839"  fill="none" stroke ="blue" stroke-width="1" />
<line x1="552.113268" y1="348.899087" x2="572.698975" y2="345.838183"  fill="none" stroke ="blue" stroke-width="1" />
<line x1="585.323089" y1="246.453759" x2="586.228569" y2="262.571428"  fill="none" stroke ="blue" stroke-width="1" />
<line x1="508.429411" y1="347.855282" x2="532.556643" y2="346.819775"  fill="none" stroke ="blue" stroke-width="1" />
<line x1="501.492862" y1="348.443958" x2="511.478887" y2="348.376460"  fill="none" stroke ="blue" stroke-width="1" />
<line x1="590.465947" y1="238.890769" x2="586.373768" y2="245.836460"  fill="none" stroke ="blue" stroke-width="1" />
<line x1="571.253499" y1="281.669709" x2="580.145571" y2="290.876497"  fill="none" stroke ="blue" stroke-width="1" />
<line x1="551.840201" y1="256.125932" x2="556.666883" y2="260.515609"  fill="none" stroke ="blue" stroke-width="1" />
<line x1="556.030773" y1="259.054239" x2="555.061945" y2="264.420920"  fill="none" stroke ="blue" stroke-width="1" />
<line x1="492.343650" y1="346.450156" x2="500.613384" y2="347.810955"  fill="none" stroke ="blue" stroke-width="1" />
<line x1="581.613460" y1="260.523514" x2="583.484204" y2="251.496726"  fill="none" stroke ="blue" stroke-width="1" />
<line x1="43.586102" y1="313.741544" x2="42.817851" y2="304.473652"  fill="none" stroke ="blue" stroke-width="1" />
</svg>
